<?xml version="1.0" encoding="UTF-8" standalone="no"?>
<svg
   id="Layer_1"
   version="1.1"
   viewBox="0 0 615.23 93.54"
   sodipodi:docname="queens_text_night.svg"
   inkscape:version="1.2.2 (b0a8486541, 2022-12-01)"
   inkscape:export-filename="queens_text_night.png"
   inkscape:export-xdpi="2315.3303"
   inkscape:export-ydpi="2315.3303"
   xmlns:inkscape="http://www.inkscape.org/namespaces/inkscape"
   xmlns:sodipodi="http://sodipodi.sourceforge.net/DTD/sodipodi-0.dtd"
   xmlns="http://www.w3.org/2000/svg"
   xmlns:svg="http://www.w3.org/2000/svg">
  <sodipodi:namedview
     id="namedview184"
     pagecolor="#ffffff"
     bordercolor="#000000"
     borderopacity="0.25"
     inkscape:showpageshadow="2"
     inkscape:pageopacity="0.0"
     inkscape:pagecheckerboard="0"
     inkscape:deskcolor="#d1d1d1"
     showgrid="false"
     inkscape:zoom="2.1292851"
     inkscape:cx="275.20975"
     inkscape:cy="47.198941"
     inkscape:window-width="1854"
     inkscape:window-height="1011"
     inkscape:window-x="66"
     inkscape:window-y="32"
     inkscape:window-maximized="1"
     inkscape:current-layer="Layer_1" />
  <!-- Generator: Adobe Illustrator 29.0.0, SVG Export Plug-In . SVG Version: 2.1.0 Build 186)  -->
  <defs
     id="defs141">
    <style
       id="style124">
      .st0 {
        clip-path: url(#clippath-4);
      }

      .st1 {
        fill: #2f6673;
      }

      .st2 {
        fill: #231f20;
      }

      .st3, .st4 {
        fill: none;
      }

      .st5 {
        clip-path: url(#clippath-1);
      }

      .st4 {
        stroke: #fff;
        stroke-linecap: round;
        stroke-linejoin: round;
        stroke-width: 2.38px;
      }

      .st6 {
        clip-path: url(#clippath-3);
      }

      .st7 {
        clip-path: url(#clippath-2);
      }

      .st8 {
        clip-path: url(#clippath);
      }
    </style>
    <clipPath
       id="clippath">
      <rect
         class="st3"
         width="93.54"
         height="93.54"
         id="rect126" />
    </clipPath>
    <clipPath
       id="clippath-1">
      <rect
         class="st3"
         width="93.54"
         height="93.54"
         id="rect129" />
    </clipPath>
    <clipPath
       id="clippath-2">
      <rect
         class="st3"
         width="93.54"
         height="93.54"
         id="rect132" />
    </clipPath>
    <clipPath
       id="clippath-3">
      <rect
         class="st3"
         width="93.54"
         height="93.54"
         id="rect135" />
    </clipPath>
    <clipPath
       id="clippath-4">
      <rect
         class="st3"
         width="93.54"
         height="93.54"
         id="rect138" />
    </clipPath>
  </defs>
  <g
     id="figure_1">
    <g
       id="patch_1">
      <path
         id="path2413"
         class="st1"
         d="M0,93.54h93.54V0H0v93.54Z" />
    </g>
    <g
       id="axes_1">
      <g
         id="line2d_1">
        <g
           class="st8"
           clip-path="url(#clippath)"
           id="g146">
          <path
             id="path2416"
             class="st4"
             d="M4.25,89.29l9.86-.02,3.66-.06,2.81-.09,2.38-.12,2.13-.16,1.96-.19,1.79-.22,1.7-.26,1.62-.3,1.53-.33,1.45-.36,1.45-.41,1.36-.44,1.36-.49,1.28-.51,1.28-.56,1.28-.62,1.19-.63,1.19-.68,1.19-.74,1.19-.8,1.19-.86,1.19-.92,1.19-.98,1.19-1.05,1.19-1.12,1.19-1.19,1.19-1.26,1.19-1.33,1.19-1.41,1.19-1.48,1.19-1.56,1.19-1.63,1.28-1.83,1.28-1.92,1.36-2.14,1.36-2.23,1.45-2.47,1.53-2.71,1.7-3.11,2.21-4.15,3.74-7.04,1.28-2.29,1.02-1.73.85-1.34.68-.99.6-.79.51-.6.43-.44.43-.37.34-.25.34-.19.34-.12.26-.04h.26s.26.06.26.06l.26.12.26.18.26.26.26.36.26.47.26.6.26.76.26.96.26,1.22.26,1.58.17,1.32.17,1.63.17,2.07.17,2.76.17,4.06.09,3.05.09,4.8.09,33.28h0" />
        </g>
      </g>
      <g
         id="line2d_2">
        <g
           class="st5"
           clip-path="url(#clippath-1)"
           id="g150">
          <path
             id="path2419"
             class="st4"
             d="M4.25,89.29l.09-33.28.09-4.8.17-5.31.17-3.29.17-2.37.17-1.83.26-2.09.26-1.58.26-1.22.26-.96.26-.76.26-.6.26-.47.26-.36.26-.26.26-.18.26-.12.26-.06h.26s.26.04.26.04l.26.09.34.17.34.23.43.36.43.43.51.59.6.77.68.98.77,1.2.85,1.42,1.11,1.95,1.36,2.5,2.38,4.5,2.81,5.27,1.79,3.26,1.62,2.84,1.45,2.45,1.36,2.22,1.36,2.12,1.28,1.9,1.28,1.82,1.28,1.73,1.19,1.54,1.19,1.46,1.19,1.39,1.19,1.31,1.19,1.24,1.19,1.17,1.19,1.1,1.19,1.03,1.19.96,1.19.9,1.19.84,1.19.78,1.19.72,1.19.67,1.19.61,1.28.6,1.28.55,1.28.5,1.36.48,1.36.42,1.45.4,1.45.35,1.53.32,1.62.29,1.7.25,1.79.21,1.96.18,2.13.15,2.38.12,2.72.08,3.4.05,4.85.02h5.02" />
        </g>
      </g>
      <g
         id="line2d_3">
        <g
           class="st7"
           clip-path="url(#clippath-2)"
           id="g154">
          <path
             id="path2422"
             class="st4"
             d="M4.25,89.29l6.29-.02,2.38-.06,1.87-.09,1.62-.12,1.45-.16,1.36-.19,1.28-.23,1.19-.26,1.19-.31,1.11-.34,1.11-.39,1.02-.41,1.02-.46,1.02-.51,1.02-.56,1.02-.62,1.02-.68,1.02-.73,1.02-.79,1.02-.86,1.02-.92,1.02-.98,1.11-1.13,1.11-1.2,1.11-1.27,1.19-1.45,1.19-1.52,1.28-1.71,1.36-1.91,1.45-2.12,1.62-2.46,1.87-2.94,2.81-4.51,2.98-4.76,1.7-2.63,1.36-2.02,1.19-1.68,1.02-1.36.94-1.17.85-.99.85-.91.77-.75.68-.61.68-.54.6-.42.6-.37.6-.31.6-.25.51-.16.51-.11.51-.06h.51s.51.03.51.03l.51.1.51.16.51.22.51.28.51.34.51.41.51.48.51.55.51.62.51.69.51.77.6.99.6,1.1.6,1.21.6,1.32.6,1.43.6,1.55.68,1.91.68,2.06.68,2.21.77,2.67.77,2.86.77,3.04.85,3.58.94,4.15,1.19,5.52,1.62,7.51.51,2.13.26.89.09.21h0" />
        </g>
      </g>
      <g
         id="line2d_4">
        <g
           class="st6"
           clip-path="url(#clippath-3)"
           id="g158">
          <path
             id="path2425"
             class="st4"
             d="M4.25,89.29l.17-.48.26-.95.43-1.8.77-3.51,2.38-11.06.94-4.07.85-3.49.77-2.96.77-2.78.77-2.59.68-2.14.68-1.99.68-1.83.68-1.68.6-1.35.6-1.24.6-1.13.6-1.02.6-.92.51-.71.51-.63.51-.56.51-.49.51-.42.51-.36.51-.29.51-.23.51-.17.51-.11.51-.05h.51s.51.06.51.06l.51.11.51.15.51.2.6.29.6.35.6.4.68.53.68.59.77.74.77.8.85.97.94,1.15.94,1.22,1.11,1.53,1.19,1.73,1.36,2.06,1.7,2.67,2.81,4.51,2.98,4.76,1.87,2.9,1.53,2.29,1.45,2.08,1.36,1.87,1.28,1.67,1.19,1.48,1.19,1.4,1.11,1.23,1.11,1.16,1.11,1.09,1.02.94,1.02.88,1.02.82,1.02.75,1.02.7,1.02.64,1.02.58,1.02.53,1.02.47,1.02.42,1.11.41,1.11.35,1.11.31,1.19.28,1.28.25,1.28.2,1.36.16,1.53.14,1.7.1,2.04.07,2.55.04h4.76s.17,0,.17,0h0" />
        </g>
      </g>
      <g
         id="line2d_5">
        <g
           class="st0"
           clip-path="url(#clippath-4)"
           id="g162">
          <path
             id="path2428"
             class="st4"
             d="M4.25,89.29l2.3-.22,1.96-.23,1.79-.26,1.62-.28,1.45-.3,1.28-.31,1.19-.34,1.11-.37,1.02-.39.94-.4.94-.46.85-.47.85-.53.77-.53.77-.59.77-.65.68-.64.68-.71.68-.78.68-.86.6-.83.6-.9.6-.98.6-1.07.6-1.17.6-1.27.6-1.38.6-1.51.6-1.63.6-1.77.6-1.92.6-2.07.6-2.24.68-2.76.68-2.98.68-3.21.77-3.87.77-4.12.85-4.84,1.19-7.08,1.79-10.66.77-4.27.6-3.07.51-2.39.43-1.8.43-1.6.34-1.12.34-.96.34-.8.26-.49.26-.39.26-.29.17-.14.17-.09.17-.05h.17l.17.05.17.09.17.14.26.29.26.39.26.49.26.58.34.92.34,1.08.34,1.22.43,1.72.43,1.91.51,2.51.6,3.17.77,4.36,1.19,7.12,1.62,9.63.94,5.28.77,4.07.77,3.81.68,3.15.68,2.93.68,2.7.68,2.49.6,2.01.6,1.86.6,1.71.6,1.58.6,1.45.6,1.34.6,1.23.6,1.13.6,1.03.6.95.68.99.68.9.68.81.68.74.68.67.68.61.77.62.77.55.77.5.85.5.85.44.94.43,1.02.41,1.02.36,1.11.34,1.19.32,1.28.3,1.45.29,1.62.27,1.79.24,1.96.22,1.79.16h0" />
        </g>
      </g>
    </g>
  </g>
  <g
     id="g171"
     style="fill:#ffffff;fill-opacity:1">
    <path
       class="st2"
       d="M158.39,93.54c-6.46,0-12.49-1.2-18.08-3.6-5.59-2.4-10.48-5.76-14.67-10.09s-7.47-9.32-9.83-15c-2.36-5.68-3.54-11.75-3.54-18.21s1.18-12.64,3.54-18.28c2.36-5.63,5.61-10.59,9.76-14.87,4.15-4.28,8.99-7.6,14.54-9.96C145.66,1.18,151.67,0,158.13,0s12.47,1.18,18.01,3.54c5.55,2.36,10.42,5.68,14.61,9.96,4.19,4.28,7.45,9.26,9.76,14.94,2.31,5.68,3.47,11.79,3.47,18.34s-1.16,12.53-3.47,18.21c-2.32,5.68-5.55,10.66-9.69,14.94-4.15,4.28-9,7.62-14.54,10.02-5.55,2.4-11.51,3.6-17.88,3.6ZM158.13,81.75c6.46,0,12.18-1.51,17.16-4.52s8.89-7.16,11.73-12.45c2.84-5.28,4.26-11.33,4.26-18.15,0-5.06-.81-9.72-2.42-13.95-1.62-4.24-3.91-7.93-6.88-11.07-2.97-3.14-6.48-5.57-10.55-7.27-4.06-1.7-8.5-2.55-13.3-2.55-6.46,0-12.18,1.49-17.16,4.45-4.98,2.97-8.89,7.07-11.73,12.32-2.84,5.24-4.26,11.27-4.26,18.08,0,5.07.83,9.76,2.49,14.08,1.66,4.32,3.95,8.04,6.88,11.14,2.93,3.1,6.42,5.53,10.48,7.27,4.06,1.75,8.49,2.62,13.3,2.62Z"
       id="path167"
       style="fill:#ffffff;fill-opacity:1" />
    <path
       class="st2"
       d="M203.94,84.79c-2.66,2.66-5.32,5.33-7.99,8l-30.84-30.84c2.66-2.66,5.33-5.32,8-7.99l30.83,30.83Z"
       id="path169"
       style="fill:#ffffff;fill-opacity:1" />
  </g>
  <path
     class="st2"
     d="M258.09,92.89c-6.73,0-12.75-1.53-18.08-4.59-5.33-3.06-9.54-7.23-12.64-12.51-3.1-5.28-4.65-11.24-4.65-17.88V.66h12.45v56.99c0,4.8,1,8.95,3.01,12.45,2.01,3.49,4.74,6.2,8.19,8.12,3.45,1.92,7.36,2.88,11.73,2.88s8.23-.96,11.59-2.88c3.36-1.92,6.03-4.63,7.99-8.12,1.97-3.49,2.95-7.6,2.95-12.32V.66h12.45v57.38c0,6.64-1.53,12.58-4.58,17.82-3.06,5.24-7.21,9.39-12.45,12.45-5.24,3.06-11.22,4.59-17.95,4.59Z"
     id="path173"
     style="fill:#ffffff;fill-opacity:1" />
  <path
     class="st2"
     d="M313.38,92.23V1.31h12.32v90.92h-12.32ZM321.76,12.58V1.31h51.49v11.27h-51.49ZM321.76,51.23v-10.87h47.82v10.87h-47.82ZM321.76,92.23v-11.27h52.14v11.27h-52.14Z"
     id="path175"
     style="fill:#ffffff;fill-opacity:1" />
  <path
     class="st2"
     d="M390.68,92.23V1.31h12.32v90.92h-12.32ZM399.06,12.58V1.31h51.49v11.27h-51.49ZM399.06,51.23v-10.87h47.82v10.87h-47.82ZM399.06,92.23v-11.27h52.14v11.27h-52.14Z"
     id="path177"
     style="fill:#ffffff;fill-opacity:1" />
  <path
     class="st2"
     d="M467.97,92.23V1.31h8.65l3.67,14.41v76.51h-12.32ZM530.86,92.23l-55.81-74.42,1.57-16.51,55.94,74.42-1.7,16.51ZM530.86,92.23l-3.67-13.49V1.31h12.32v90.92h-8.65Z"
     id="path179"
     style="fill:#ffffff;fill-opacity:1" />
  <path
     class="st2"
     d="M584.31,93.54c-7.07,0-13.15-1.31-18.21-3.93-5.07-2.62-9.56-6.42-13.49-11.4l8.38-8.38c2.88,4.02,6.2,7.05,9.96,9.11,3.75,2.05,8.38,3.08,13.89,3.08s9.76-1.18,13.04-3.54c3.28-2.36,4.91-5.59,4.91-9.69,0-3.41-.81-6.16-2.42-8.25-1.62-2.1-3.73-3.82-6.35-5.18-2.62-1.35-5.5-2.55-8.65-3.6-3.15-1.05-6.29-2.2-9.43-3.47-3.14-1.27-6.05-2.86-8.71-4.78-2.67-1.92-4.78-4.39-6.35-7.4s-2.36-6.88-2.36-11.59c0-5.15,1.25-9.54,3.73-13.17,2.49-3.62,5.9-6.42,10.22-8.38C576.78.98,581.65,0,587.06,0,593,0,598.33,1.16,603.05,3.47c4.72,2.32,8.56,5.35,11.53,9.11l-8.38,8.38c-2.71-3.14-5.61-5.5-8.71-7.07-3.1-1.57-6.66-2.36-10.68-2.36-4.89,0-8.78,1.07-11.66,3.21-2.88,2.14-4.32,5.13-4.32,8.97,0,3.06.81,5.53,2.42,7.4,1.62,1.88,3.73,3.47,6.35,4.78,2.62,1.31,5.52,2.51,8.71,3.6,3.19,1.09,6.35,2.29,9.5,3.6s6.03,2.97,8.65,4.98c2.62,2.01,4.74,4.61,6.35,7.8,1.61,3.19,2.42,7.19,2.42,11.99,0,8.04-2.77,14.33-8.32,18.87-5.55,4.54-13.08,6.81-22.6,6.81Z"
     id="path181"
     style="fill:#ffffff;fill-opacity:1" />
</svg>
