<?xml version="1.0" encoding="utf-8" standalone="no"?>
<!DOCTYPE svg PUBLIC "-//W3C//DTD SVG 1.1//EN"
  "http://www.w3.org/Graphics/SVG/1.1/DTD/svg11.dtd">
<svg xmlns:xlink="http://www.w3.org/1999/xlink" width="432pt" height="432pt" viewBox="0 0 432 432" xmlns="http://www.w3.org/2000/svg" version="1.1">
 <metadata>
  <rdf:RDF xmlns:dc="http://purl.org/dc/elements/1.1/" xmlns:cc="http://creativecommons.org/ns#" xmlns:rdf="http://www.w3.org/1999/02/22-rdf-syntax-ns#">
   <cc:Work>
    <dc:type rdf:resource="http://purl.org/dc/dcmitype/StillImage"/>
    <dc:date>2025-08-01T16:04:17.111361</dc:date>
    <dc:format>image/svg+xml</dc:format>
    <dc:creator>
     <cc:Agent>
      <dc:title>Matplotlib v3.10.3, https://matplotlib.org/</dc:title>
     </cc:Agent>
    </dc:creator>
   </cc:Work>
  </rdf:RDF>
 </metadata>
 <defs>
  <style type="text/css">*{stroke-linejoin: round; stroke-linecap: butt}</style>
 </defs>
 <g id="figure_1">
  <g id="patch_1">
   <path d="M 0 432
L 432 432
L 432 0
L 0 0
z
" style="fill: #2c6572"/>
  </g>
  <g id="axes_1">
   <g id="line2d_1">
    <path d="M 19.636364 412.363636
L 65.192727 412.255115
L 82.08 411.984373
L 95.04 411.563654
L 106.036364 410.994323
L 115.854545 410.271226
L 124.887273 409.386255
L 133.134545 408.360887
L 140.989091 407.162208
L 148.450909 405.796708
L 155.52 404.27616
L 162.196364 402.617164
L 168.872727 400.722221
L 175.156364 398.705822
L 181.44 396.446777
L 187.330909 394.093765
L 193.221818 391.499089
L 199.112727 388.648926
L 204.610909 385.746102
L 210.109091 382.597569
L 215.607273 379.192314
L 221.105455 375.519506
L 226.603636 371.56856
L 232.101818 367.329208
L 237.6 362.791573
L 243.098182 357.946262
L 248.596364 352.784461
L 254.094545 347.298043
L 259.592727 341.479701
L 265.090909 335.323085
L 270.589091 328.82297
L 276.087273 321.975448
L 281.585455 314.778147
L 287.083636 307.230494
L 292.974545 298.756729
L 298.865455 289.887626
L 305.149091 280.001663
L 311.432727 269.692888
L 318.109091 258.303713
L 325.178182 245.799291
L 333.032727 231.448502
L 343.243636 212.283285
L 360.523636 179.775934
L 366.414545 169.214323
L 371.127273 161.219489
L 375.054545 155.00894
L 378.196364 150.436786
L 380.945455 146.803815
L 383.301818 144.024912
L 385.265455 141.991705
L 387.229091 140.261187
L 388.8 139.129646
L 390.370909 138.257572
L 391.941818 137.683611
L 393.12 137.476546
L 394.298182 137.486811
L 395.476364 137.742157
L 396.654545 138.275656
L 397.832727 139.127237
L 399.010909 140.34582
L 400.189091 141.992387
L 401.367273 144.14452
L 402.545455 146.90337
L 403.723636 150.404822
L 404.901818 154.838391
L 406.08 160.481452
L 407.258182 167.767078
L 408.043636 173.881
L 408.829091 181.40395
L 409.614545 190.947299
L 410.4 203.68433
L 411.185455 222.431722
L 411.578182 236.522199
L 411.970909 258.670309
L 412.363636 412.363636
L 412.363636 412.363636
" clip-path="url(#p72f46b56bd)" style="fill: none; stroke: #ffffff; stroke-width: 11; stroke-linecap: round"/>
   </g>
   <g id="line2d_2">
    <path d="M 19.636364 412.363636
L 20.029091 258.670309
L 20.421818 236.522199
L 21.207273 211.989154
L 21.992727 196.803302
L 22.778182 185.869091
L 23.563636 177.436146
L 24.741818 167.767078
L 25.92 160.481452
L 27.098182 154.838391
L 28.276364 150.404822
L 29.454545 146.90337
L 30.632727 144.14452
L 31.810909 141.992387
L 32.989091 140.34582
L 34.167273 139.127237
L 35.345455 138.275656
L 36.523636 137.742157
L 37.701818 137.486811
L 38.88 137.476546
L 40.058182 137.683611
L 41.236364 138.084463
L 42.807273 138.885912
L 44.378182 139.955839
L 46.341818 141.619854
L 48.305455 143.596249
L 50.661818 146.317473
L 53.410909 149.894928
L 56.552727 154.416078
L 60.087273 159.939849
L 64.014545 166.494946
L 69.12 175.492087
L 75.403636 187.043565
L 86.4 207.815647
L 99.36 232.175765
L 107.607273 247.209464
L 115.069091 260.34465
L 121.745455 271.656991
L 128.029091 281.888085
L 134.312727 291.692706
L 140.203636 300.483323
L 146.094545 308.8773
L 151.985455 316.870281
L 157.483636 323.967502
L 162.981818 330.715451
L 168.48 337.116963
L 173.978182 343.176344
L 179.476364 348.899158
L 184.974545 354.292044
L 190.472727 359.362558
L 195.970909 364.119035
L 201.469091 368.570464
L 206.967273 372.726389
L 212.465455 376.596803
L 217.963636 380.192076
L 223.461818 383.522867
L 228.96 386.600067
L 234.458182 389.43473
L 240.349091 392.215413
L 246.24 394.744294
L 252.130909 397.035193
L 258.414545 399.232024
L 264.698182 401.190339
L 271.374545 403.028032
L 278.050909 404.634292
L 285.12 406.103808
L 292.581818 407.42065
L 300.436364 408.573684
L 308.683636 409.557012
L 317.716364 410.402492
L 327.534545 411.089924
L 338.530909 411.627538
L 351.098182 412.011946
L 366.807273 412.255115
L 389.192727 412.356282
L 412.363636 412.363636
L 412.363636 412.363636
" clip-path="url(#p72f46b56bd)" style="fill: none; stroke: #ffffff; stroke-width: 11; stroke-linecap: round"/>
   </g>
   <g id="line2d_3">
    <path d="M 19.636364 412.363636
L 48.698182 412.256715
L 59.694545 411.991643
L 68.334545 411.574968
L 75.796364 411.004936
L 82.472727 410.284813
L 88.756364 409.389466
L 94.647273 408.328351
L 100.145455 407.119686
L 105.643636 405.67773
L 110.749091 404.11109
L 115.854545 402.308146
L 120.567273 400.42041
L 125.28 398.305992
L 129.992727 395.953865
L 134.705455 393.353889
L 139.418182 390.496914
L 144.130909 387.37489
L 148.843636 383.98097
L 153.556364 380.30961
L 158.269091 376.35667
L 162.981818 372.11951
L 167.694545 367.597086
L 172.8 362.376667
L 177.905455 356.825416
L 183.010909 350.94908
L 188.509091 344.266911
L 194.007273 337.231765
L 199.898182 329.323121
L 206.181818 320.494808
L 212.858182 310.715495
L 220.32 299.369265
L 228.96 285.805034
L 241.92 264.977723
L 255.665455 242.98137
L 263.52 230.83881
L 269.803636 221.532931
L 275.301818 213.792078
L 280.014545 207.524672
L 284.334545 202.129477
L 288.261818 197.555126
L 292.189091 193.332342
L 295.723636 189.862816
L 298.865455 187.065089
L 302.007273 184.557341
L 304.756364 182.616697
L 307.505455 180.927064
L 310.254545 179.502253
L 313.003636 178.356226
L 315.36 177.606488
L 317.716364 177.080863
L 320.072727 176.788337
L 322.429091 176.737931
L 324.785455 176.938686
L 327.141818 177.399648
L 329.498182 178.129851
L 331.854545 179.138302
L 334.210909 180.433954
L 336.567273 182.025692
L 338.923636 183.922303
L 341.28 186.13245
L 343.636364 188.664643
L 345.992727 191.527206
L 348.349091 194.728238
L 350.705455 198.275571
L 353.454545 202.861821
L 356.203636 207.940941
L 358.952727 213.523415
L 361.701818 219.618757
L 364.450909 226.235325
L 367.2 233.380107
L 370.341818 242.199143
L 373.483636 251.719834
L 376.625455 261.942876
L 380.16 274.277549
L 383.694545 287.47902
L 387.229091 301.517148
L 391.156364 318.035852
L 395.476364 337.199188
L 400.974545 362.70931
L 408.436364 397.410119
L 410.792727 407.261972
L 411.970909 411.385353
L 412.363636 412.363636
L 412.363636 412.363636
" clip-path="url(#p72f46b56bd)" style="fill: none; stroke: #ffffff; stroke-width: 11; stroke-linecap: round"/>
   </g>
   <g id="line2d_4">
    <path d="M 19.636364 412.363636
L 20.421818 410.125118
L 21.6 405.722248
L 23.563636 397.410119
L 27.098182 381.219024
L 38.094545 330.122025
L 42.414545 311.317484
L 46.341818 295.177315
L 49.876364 281.506247
L 53.410909 268.687215
L 56.945455 256.743705
L 60.087273 246.871631
L 63.229091 237.702132
L 66.370909 229.232342
L 69.512727 221.455685
L 72.261818 215.212219
L 75.010909 209.484136
L 77.76 204.26223
L 80.509091 199.53628
L 83.258182 195.295204
L 85.614545 192.036992
L 87.970909 189.118573
L 90.327273 186.53189
L 92.683636 184.268655
L 95.04 182.320386
L 97.396364 180.678444
L 99.752727 179.334058
L 102.109091 178.278361
L 104.465455 177.502407
L 106.821818 176.997199
L 109.178182 176.753704
L 111.534545 176.762878
L 113.890909 177.015677
L 116.247273 177.503078
L 118.603636 178.216087
L 120.96 179.145755
L 123.709091 180.492344
L 126.458182 182.10773
L 129.207273 183.978056
L 132.349091 186.410189
L 135.490909 189.137283
L 139.025455 192.533193
L 142.56 196.249722
L 146.487273 200.722406
L 150.807273 206.018017
L 155.127273 211.662103
L 160.232727 218.720405
L 165.730909 226.714608
L 172.014545 236.244586
L 179.869091 248.575817
L 192.829091 269.416284
L 206.574545 291.399656
L 215.214545 304.793268
L 222.283636 315.365439
L 228.96 324.957334
L 235.243636 333.58734
L 241.134545 341.294104
L 246.632727 348.129515
L 252.130909 354.603358
L 257.236364 360.280466
L 262.341818 365.628642
L 267.447273 370.643735
L 272.16 374.975948
L 276.872727 379.023412
L 281.585455 382.788244
L 286.298182 386.274096
L 291.010909 389.486053
L 295.723636 392.43054
L 300.436364 395.115218
L 305.149091 397.548882
L 309.861818 399.741353
L 314.574545 401.703374
L 319.68 403.582259
L 324.785455 405.21987
L 329.890909 406.632612
L 335.389091 407.922091
L 341.28 409.061024
L 347.170909 409.975637
L 353.454545 410.734827
L 360.523636 411.361973
L 368.378182 411.830092
L 377.803636 412.153681
L 389.585455 412.322448
L 411.578182 412.363636
L 412.363636 412.363636
L 412.363636 412.363636
" clip-path="url(#p72f46b56bd)" style="fill: none; stroke: #ffffff; stroke-width: 11; stroke-linecap: round"/>
   </g>
   <g id="line2d_5">
    <path d="M 19.636364 412.363636
L 30.24 411.370317
L 39.272727 410.309764
L 47.52 409.11968
L 54.981818 407.813069
L 61.658182 406.414519
L 67.549091 404.961389
L 73.047273 403.382971
L 78.152727 401.689962
L 82.865455 399.899412
L 87.185455 398.035205
L 91.505455 395.925267
L 95.432727 393.763083
L 99.36 391.335721
L 102.894545 388.894437
L 106.429091 386.178942
L 109.963636 383.155419
L 113.105455 380.178635
L 116.247273 376.898794
L 119.389091 373.283086
L 122.530909 369.295397
L 125.28 365.46999
L 128.029091 361.300732
L 130.778182 356.756682
L 133.527273 351.804771
L 136.276364 346.409885
L 139.025455 340.535033
L 141.774545 334.141637
L 144.523636 327.189951
L 147.272727 319.639666
L 150.021818 311.450719
L 152.770909 302.58437
L 155.52 293.00457
L 158.269091 282.679673
L 161.410909 269.935561
L 164.552727 256.162888
L 167.694545 241.359918
L 171.229091 223.508596
L 174.763636 204.477267
L 178.690909 182.143794
L 184.189091 149.431723
L 192.436364 100.208798
L 195.970909 80.501024
L 198.72 66.344538
L 201.076364 55.287758
L 203.04 46.981671
L 205.003636 39.614762
L 206.574545 34.463837
L 208.145455 30.022528
L 209.716364 26.330933
L 210.894545 24.074934
L 212.072727 22.271766
L 213.250909 20.930998
L 214.036364 20.297683
L 214.821818 19.874629
L 215.607273 19.662848
L 216.392727 19.662848
L 217.178182 19.874629
L 217.963636 20.297683
L 218.749091 20.930998
L 219.927273 22.271766
L 221.105455 24.074934
L 222.283636 26.330933
L 223.461818 29.027906
L 225.032727 33.28532
L 226.603636 38.262905
L 228.174545 43.916489
L 230.138182 51.859284
L 232.101818 60.678199
L 234.458182 72.262305
L 237.207273 86.909231
L 240.741818 107.052289
L 246.24 139.938434
L 253.701818 184.425204
L 258.021818 208.801465
L 261.556364 227.581697
L 265.090909 245.156373
L 268.232727 259.702998
L 271.374545 273.217438
L 274.516364 285.707285
L 277.658182 297.199713
L 280.407273 306.469574
L 283.156364 315.041001
L 285.905455 322.951387
L 288.654545 330.240188
L 291.403636 336.947687
L 294.152727 343.11404
L 296.901818 348.778553
L 299.650909 353.979168
L 302.4 358.752098
L 305.149091 363.131596
L 308.290909 367.696145
L 311.432727 371.833343
L 314.574545 375.584129
L 317.716364 378.985902
L 320.858182 382.072689
L 324 384.87534
L 327.534545 387.723322
L 331.069091 390.282553
L 334.603636 392.584707
L 338.530909 394.875236
L 342.458182 396.917013
L 346.778182 398.91102
L 351.490909 400.8242
L 356.203636 402.500925
L 361.309091 404.088176
L 366.807273 405.569878
L 372.698182 406.935822
L 379.374545 408.2524
L 386.836364 409.484429
L 395.083636 410.608551
L 404.116364 411.612186
L 412.363636 412.363636
L 412.363636 412.363636
" clip-path="url(#p72f46b56bd)" style="fill: none; stroke: #ffffff; stroke-width: 11; stroke-linecap: round"/>
   </g>
  </g>
 </g>
 <defs>
  <clipPath id="p72f46b56bd">
   <rect x="0" y="0" width="432" height="432"/>
  </clipPath>
 </defs>
</svg>
