<?xml version="1.0" encoding="UTF-8"?>
<svg id="Layer_1" xmlns="http://www.w3.org/2000/svg" version="1.1" xmlns:xlink="http://www.w3.org/1999/xlink" viewBox="0 0 615.2 93.5">
  <!-- Generator: Adobe Illustrator 29.0.0, SVG Export Plug-In . SVG Version: 2.1.0 Build 186)  -->
  <defs>
    <style>
      .st0 {
        clip-path: url(#clippath-4);
      }

      .st1, .st2 {
        fill: none;
      }

      .st3 {
        clip-path: url(#clippath-1);
      }

      .st4 {
        clip-path: url(#clippath-3);
      }

      .st5 {
        clip-path: url(#clippath-2);
      }

      .st6 {
        clip-path: url(#clippath);
      }

      .st7 {
        fill: #2f6673;
      }

      .st2 {
        stroke: #fff;
        stroke-linecap: round;
        stroke-linejoin: round;
        stroke-width: 2.4px;
      }
    </style>
    <clipPath id="clippath">
      <rect class="st1" y="0" width="93.5" height="93.5"/>
    </clipPath>
    <clipPath id="clippath-1">
      <rect class="st1" y="0" width="93.5" height="93.5"/>
    </clipPath>
    <clipPath id="clippath-2">
      <rect class="st1" y="0" width="93.5" height="93.5"/>
    </clipPath>
    <clipPath id="clippath-3">
      <rect class="st1" y="0" width="93.5" height="93.5"/>
    </clipPath>
    <clipPath id="clippath-4">
      <rect class="st1" y="0" width="93.5" height="93.5"/>
    </clipPath>
  </defs>
  <g id="figure_1">
    <g id="patch_1">
      <path id="path2413" class="st7" d="M0,93.5h93.5V0H0v93.5Z"/>
    </g>
    <g id="axes_1">
      <g id="line2d_1">
        <g class="st6">
          <path id="path2416" class="st2" d="M4.2,89.3h9.9s3.7,0,3.7,0h2.8c0,0,2.4-.2,2.4-.2l2.1-.2,2-.2,1.8-.2,1.7-.3,1.6-.3,1.5-.3,1.5-.4,1.5-.4,1.4-.4,1.4-.5,1.3-.5,1.3-.6,1.3-.6,1.2-.6,1.2-.7,1.2-.7,1.2-.8,1.2-.9,1.2-.9,1.2-1,1.2-1.1,1.2-1.1,1.2-1.2,1.2-1.3,1.2-1.3,1.2-1.4,1.2-1.5,1.2-1.6,1.2-1.6,1.3-1.8,1.3-1.9,1.4-2.1,1.4-2.2,1.4-2.5,1.5-2.7,1.7-3.1,2.2-4.2,3.7-7,1.3-2.3,1-1.7.8-1.3.7-1,.6-.8.5-.6.4-.4.4-.4.3-.2.3-.2h.3c0-.1.3-.2.3-.2h.5c0,0,.3.2.3.2l.3.2.3.3.3.4.3.5.3.6.3.8.3,1,.3,1.2.3,1.6.2,1.3.2,1.6.2,2.1.2,2.8.2,4.1v3c0,0,.2,4.8.2,4.8v33.3h0"/>
        </g>
      </g>
      <g id="line2d_2">
        <g class="st3">
          <path id="path2419" class="st2" d="M4.2,89.3v-33.3c0,0,.2-4.8.2-4.8l.2-5.3.2-3.3.2-2.4.2-1.8.3-2.1.3-1.6.3-1.2.3-1,.3-.8.3-.6.3-.5.3-.4.3-.3.3-.2h.3c0-.1.3-.2.3-.2h.5s.3.1.3.1l.3.2.3.2.4.4.4.4.5.6.6.8.7,1,.8,1.2.9,1.4,1.1,2,1.4,2.5,2.4,4.5,2.8,5.3,1.8,3.3,1.6,2.8,1.5,2.5,1.4,2.2,1.4,2.1,1.3,1.9,1.3,1.8,1.3,1.7,1.2,1.5,1.2,1.5,1.2,1.4,1.2,1.3,1.2,1.2,1.2,1.2,1.2,1.1,1.2,1,1.2,1,1.2.9,1.2.8,1.2.8,1.2.7,1.2.7,1.2.6,1.3.6,1.3.6,1.3.5,1.4.5,1.4.4,1.5.4,1.5.3,1.5.3,1.6.3,1.7.2,1.8.2,2,.2,2.1.2h2.4c0,.1,2.7.2,2.7.2h3.4c0,0,4.8,0,4.8,0h5"/>
        </g>
      </g>
      <g id="line2d_3">
        <g class="st5">
          <path id="path2422" class="st2" d="M4.2,89.3h6.3s2.4,0,2.4,0h1.9c0,0,1.6-.2,1.6-.2l1.5-.2,1.4-.2,1.3-.2,1.2-.3,1.2-.3,1.1-.3,1.1-.4,1-.4,1-.5,1-.5,1-.6,1-.6,1-.7,1-.7,1-.8,1-.9,1-.9,1-1,1.1-1.1,1.1-1.2,1.1-1.3,1.2-1.4,1.2-1.5,1.3-1.7,1.4-1.9,1.5-2.1,1.6-2.5,1.9-2.9,2.8-4.5,3-4.8,1.7-2.6,1.4-2,1.2-1.7,1-1.4.9-1.2.8-1,.8-.9.8-.8.7-.6.7-.5.6-.4.6-.4.6-.3.6-.2.5-.2h.5c0-.1.5-.2.5-.2h1s.5.1.5.1l.5.2.5.2.5.3.5.3.5.4.5.5.5.5.5.6.5.7.5.8.6,1,.6,1.1.6,1.2.6,1.3.6,1.4.6,1.5.7,1.9.7,2.1.7,2.2.8,2.7.8,2.9.8,3,.8,3.6.9,4.2,1.2,5.5,1.6,7.5.5,2.1.3.9v.2h0"/>
        </g>
      </g>
      <g id="line2d_4">
        <g class="st4">
          <path id="path2425" class="st2" d="M4.2,89.3l.2-.5.3-.9.4-1.8.8-3.5,2.4-11.1.9-4.1.9-3.5.8-3,.8-2.8.8-2.6.7-2.1.7-2,.7-1.8.7-1.7.6-1.3.6-1.2.6-1.1.6-1,.6-.9.5-.7.5-.6.5-.6.5-.5.5-.4.5-.4.5-.3.5-.2.5-.2h.5c0-.1.5-.2.5-.2h1c0,0,.5.2.5.2l.5.2.5.2.6.3.6.3.6.4.7.5.7.6.8.7.8.8.9,1,.9,1.2.9,1.2,1.1,1.5,1.2,1.7,1.4,2.1,1.7,2.7,2.8,4.5,3,4.8,1.9,2.9,1.5,2.3,1.5,2.1,1.4,1.9,1.3,1.7,1.2,1.5,1.2,1.4,1.1,1.2,1.1,1.2,1.1,1.1,1,.9,1,.9,1,.8,1,.8,1,.7,1,.6,1,.6,1,.5,1,.5,1,.4,1.1.4,1.1.3,1.1.3,1.2.3,1.3.2,1.3.2,1.4.2h1.5c0,.1,1.7.2,1.7.2h2c0,0,2.6.1,2.6.1h4.9"/>
        </g>
      </g>
      <g id="line2d_5">
        <g class="st0">
          <path id="path2428" class="st2" d="M4.2,89.3l2.3-.2,2-.2,1.8-.3,1.6-.3,1.4-.3,1.3-.3,1.2-.3,1.1-.4,1-.4.9-.4.9-.5.9-.5.9-.5.8-.5.8-.6.8-.7.7-.6.7-.7.7-.8.7-.9.6-.8.6-.9.6-1,.6-1.1.6-1.2.6-1.3.6-1.4.6-1.5.6-1.6.6-1.8.6-1.9.6-2.1.6-2.2.7-2.8.7-3,.7-3.2.8-3.9.8-4.1.8-4.8,1.2-7.1,1.8-10.7.8-4.3.6-3.1.5-2.4.4-1.8.4-1.6.3-1.1.3-1,.3-.8.3-.5.3-.4.3-.3h.2c0-.1.2-.2.2-.2h.2c0,0,.2,0,.2,0h.2c0,0,.2.1.2.1h.2c0,.1.3.4.3.4l.3.4.3.5.3.6.3.9.3,1.1.3,1.2.4,1.7.4,1.9.5,2.5.6,3.2.8,4.4,1.2,7.1,1.6,9.6.9,5.3.8,4.1.8,3.8.7,3.2.7,2.9.7,2.7.7,2.5.6,2,.6,1.9.6,1.7.6,1.6.6,1.4.6,1.3.6,1.2.6,1.1.6,1,.6.9.7,1,.7.9.7.8.7.7.7.7.7.6.8.6.8.6.8.5.8.5.8.4.9.4,1,.4,1,.4,1.1.3,1.2.3,1.3.3,1.4.3,1.6.3,1.8.2,2,.2,1.8.2h0"/>
        </g>
      </g>
    </g>
  </g>
  <g>
    <path d="M158.4,93.5c-6.5,0-12.5-1.2-18.1-3.6s-10.5-5.8-14.7-10.1-7.5-9.3-9.8-15-3.5-11.8-3.5-18.2,1.2-12.6,3.5-18.3c2.4-5.6,5.6-10.6,9.8-14.9s9-7.6,14.5-10C145.7,1.2,151.7,0,158.1,0s12.5,1.2,18,3.5c5.6,2.4,10.4,5.7,14.6,10s7.4,9.3,9.8,14.9c2.3,5.7,3.5,11.8,3.5,18.3s-1.2,12.5-3.5,18.2c-2.3,5.7-5.6,10.7-9.7,14.9-4.1,4.3-9,7.6-14.5,10-5.6,2.4-11.5,3.6-17.9,3.6h0ZM158.1,81.8c6.5,0,12.2-1.5,17.2-4.5s8.9-7.2,11.7-12.4c2.8-5.3,4.3-11.3,4.3-18.2s-.8-9.7-2.4-14c-1.6-4.2-3.9-7.9-6.9-11.1s-6.5-5.6-10.6-7.3c-4.1-1.7-8.5-2.6-13.3-2.6s-12.2,1.5-17.2,4.4c-5,3-8.9,7.1-11.7,12.3-2.8,5.2-4.3,11.3-4.3,18.1s.8,9.8,2.5,14.1c1.7,4.3,3.9,8,6.9,11.1,2.9,3.1,6.4,5.5,10.5,7.3,4.1,1.8,8.5,2.6,13.3,2.6h0Z"/>
    <path d="M203.9,84.8c-2.7,2.7-5.3,5.3-8,8l-30.8-30.8c2.7-2.7,5.3-5.3,8-8l30.8,30.8Z"/>
  </g>
  <path d="M258.1,92.9c-6.7,0-12.8-1.5-18.1-4.6s-9.5-7.2-12.6-12.5-4.6-11.2-4.6-17.9V.7h12.4v57c0,4.8,1,8.9,3,12.4,2,3.5,4.7,6.2,8.2,8.1,3.4,1.9,7.4,2.9,11.7,2.9s8.2-1,11.6-2.9,6-4.6,8-8.1c2-3.5,3-7.6,3-12.3V.7h12.5v57.4c0,6.6-1.5,12.6-4.6,17.8-3.1,5.2-7.2,9.4-12.5,12.4-5.2,3.1-11.2,4.6-18,4.6h0Z"/>
  <path d="M313.4,92.2V1.3h12.3v90.9s-12.3,0-12.3,0ZM321.8,12.6V1.3h51.5v11.3h-51.5ZM321.8,51.2v-10.9h47.8v10.9h-47.8ZM321.8,92.2v-11.3h52.1v11.3s-52.1,0-52.1,0Z"/>
  <path d="M390.7,92.2V1.3h12.3v90.9s-12.3,0-12.3,0ZM399.1,12.6V1.3h51.5v11.3h-51.5ZM399.1,51.2v-10.9h47.8v10.9h-47.8ZM399.1,92.2v-11.3h52.1v11.3s-52.1,0-52.1,0Z"/>
  <path d="M468,92.2V1.3h8.6l3.7,14.4v76.5h-12.3ZM530.9,92.2l-55.8-74.4,1.6-16.5,55.9,74.4-1.7,16.5ZM530.9,92.2l-3.7-13.5V1.3h12.3v90.9s-8.7,0-8.7,0Z"/>
  <path d="M584.3,93.5c-7.1,0-13.2-1.3-18.2-3.9-5.1-2.6-9.6-6.4-13.5-11.4l8.4-8.4c2.9,4,6.2,7.1,10,9.1,3.8,2.1,8.4,3.1,13.9,3.1s9.8-1.2,13-3.5c3.3-2.4,4.9-5.6,4.9-9.7s-.8-6.2-2.4-8.2c-1.6-2.1-3.7-3.8-6.3-5.2-2.6-1.3-5.5-2.5-8.7-3.6s-6.3-2.2-9.4-3.5-6-2.9-8.7-4.8c-2.7-1.9-4.8-4.4-6.3-7.4s-2.4-6.9-2.4-11.6,1.2-9.5,3.7-13.2c2.5-3.6,5.9-6.4,10.2-8.4C576.8,1,581.7,0,587.1,0s11.3,1.2,16,3.5c4.7,2.3,8.6,5.3,11.5,9.1l-8.4,8.4c-2.7-3.1-5.6-5.5-8.7-7.1-3.1-1.6-6.7-2.4-10.7-2.4s-8.8,1.1-11.7,3.2c-2.9,2.1-4.3,5.1-4.3,9s.8,5.5,2.4,7.4c1.6,1.9,3.7,3.5,6.3,4.8s5.5,2.5,8.7,3.6,6.3,2.3,9.5,3.6,6,3,8.7,5,4.7,4.6,6.3,7.8,2.4,7.2,2.4,12c0,8-2.8,14.3-8.3,18.9s-13.1,6.8-22.6,6.8Z"/>
</svg>
